<?xml version="1.0" encoding="UTF-8"?>
<svg width="146px" height="92px" viewBox="0 0 146 92" version="1.1" xmlns="http://www.w3.org/2000/svg" xmlns:xlink="http://www.w3.org/1999/xlink">
    <!-- Generator: Sketch 49.2 (51160) - http://www.bohemiancoding.com/sketch -->
    <title>Artboard 2</title>
    <desc>Created with Sketch.</desc>
    <defs>
        <rect id="path-1" x="53.6610435" y="18.9830705" width="59.0397043" height="46.1263907"></rect>
        <filter x="-11.0%" y="-11.9%" width="122.0%" height="128.2%" filterUnits="objectBoundingBox" id="filter-2">
            <feOffset dx="0" dy="1" in="SourceAlpha" result="shadowOffsetOuter1"></feOffset>
            <feGaussianBlur stdDeviation="2" in="shadowOffsetOuter1" result="shadowBlurOuter1"></feGaussianBlur>
            <feColorMatrix values="0 0 0 0 0.266666698   0 0 0 0 0.266666698   0 0 0 0 0.266666698  0 0 0 0.0286741395 0" type="matrix" in="shadowBlurOuter1"></feColorMatrix>
        </filter>
    </defs>
    <g id="Artboard-2" stroke="none" stroke-width="1" fill="none" fill-rule="evenodd">
        <g id="illustration-/-upload" transform="translate(9.000000, 14.000000)" fill-rule="nonzero">
            <g>
                <g id="Group" opacity="0.5" transform="translate(90.986018, 20.572881)" fill="#D2F0F9">
                    <path d="M28.613133,5.94622633 C28.4836017,5.39208581 27.8359452,5.1332657 27.2646789,5.07685618 C26.6934126,5.02044667 26.0822906,5.07685618 25.6040212,4.76494476 C25.1257517,4.45303333 24.8633678,3.84911972 24.3850984,3.50734443 C23.528199,2.8934762 22.3125975,3.34807051 21.2995963,3.04611371 C20.2865951,2.7441569 19.6987222,1.81837725 18.8916425,1.19123619 C17.2606468,-0.0191877108 15.0159305,0.0286146839 13.4380425,1.30737342 C12.7970286,1.85155931 12.2689394,2.60811043 11.4452532,2.80388462 C10.7809901,2.96315854 10.0702286,2.6910656 9.37607365,2.6943838 C7.52610091,2.6943838 6.1942534,4.6388529 4.36420856,4.91094585 C3.69994546,5.01381026 2.98918395,4.87444558 2.30831427,4.97730998 C1.47134276,5.10008363 0.697476254,5.19631162 0.249098662,5.91304426 L28.613133,5.94622633 Z" id="Shape"></path>
                </g>
                <g id="Group" opacity="0.5" transform="translate(102.628649, 46.454893)" fill="#99E3AD">
                    <path d="M1.62080196,12.3968201 C-0.29888567,14.5428004 -0.208539368,17.8126046 1.82672352,19.8495122 C3.600306,21.6546166 6.42010285,22.2651667 8.85794843,21.5816161 C11.295794,20.8980655 13.3217965,19.0299152 14.4311158,16.7536254 C15.1983397,15.174159 15.5205073,13.1965079 14.5706111,11.7165877 C13.8797775,10.6381705 12.6608547,10.0408933 11.5017156,9.49338924 C12.2390476,7.54560193 12.4482905,5.31908527 11.6412108,3.39784361 C10.8341311,1.47660196 8.85462711,-0.0132728266 6.77880493,0.149319299 C4.55352355,0.321866046 2.84636738,2.21988025 1.82008089,4.20084963 C1.06884501,5.65947222 0.552144132,7.22716013 0.288954448,8.84633894 C0.143214607,9.52835265 0.148883157,10.2339928 0.305561026,10.9135817 C0.47506061,11.6009567 0.99331852,12.1489644 1.67062169,12.3570016 L1.62080196,12.3968201 Z" id="Shape"></path>
                </g>
                <path d="M110.460311,78.1404485 C110.380829,78.1388725 110.313138,78.0822864 110.297566,78.004402 C109.380883,73.2195481 110.191284,68.899243 111.044862,64.323436 C111.217571,63.4009746 111.3936,62.4619221 111.559666,61.4996421 C112.556061,55.8122359 110.360671,52.4011195 110.340743,52.3679374 C110.315808,52.3316298 110.306679,52.2867708 110.315443,52.2436178 C110.324207,52.2004648 110.350114,52.1627081 110.387242,52.1389812 C110.463447,52.0890011 110.565732,52.1097353 110.616413,52.1854361 C110.639662,52.2219363 112.891514,55.7392354 111.888476,61.5560517 C111.722411,62.5216498 111.556345,63.4607023 111.373673,64.3864819 C110.523416,68.9291068 109.713015,73.2195481 110.626377,77.9413561 C110.642667,78.0318326 110.583682,78.1187548 110.493524,78.1371303 L110.460311,78.1404485 Z" id="Shape" fill="#808080"></path>
                <path d="M111.01497,65.8431747 C110.950711,65.8426908 110.892499,65.8052114 110.865511,65.7469467 C110.848905,65.7104464 109.181604,62.1334196 105.262452,61.1014573 C105.174731,61.077213 105.122888,60.9869426 105.146206,60.8990467 C105.156213,60.8559184 105.183735,60.8188971 105.222171,60.7968644 C105.260607,60.7748316 105.306488,60.7697757 105.348806,60.7829095 C109.42406,61.8679631 111.151144,65.5843545 111.167751,65.6208548 C111.205166,65.7042435 111.168042,65.8021595 111.084718,65.8398564 C111.061911,65.8455171 111.038213,65.8466445 111.01497,65.8431747 Z" id="Shape" fill="#808080"></path>
                <g id="Group" opacity="0.5" transform="translate(83.697151, 72.336905)" fill="#CCF1D6">
                    <path d="M34.0600904,5.73054289 C32.1090843,3.15138636 29.3319488,1.31848265 26.191894,0.537549478 C23.3123135,-0.165910333 20.1039227,0.10950082 17.6361853,1.75201311 C16.7859285,2.31610825 16.0087407,3.0427955 15.0256313,3.30825204 C12.969737,3.86571075 10.9105214,2.2431077 8.78487949,2.36256314 C5.69273476,2.53842809 3.38774181,5.47172277 0.255741293,5.46176815 L34.0600904,5.73054289 Z" id="Shape"></path>
                </g>
                <g id="Group" opacity="0.5" transform="translate(2.324921, 0.000000)" fill="#D2F0F9">
                    <path d="M23.5315203,5.89313502 C22.3590959,5.89313502 19.7053648,4.82799068 18.7886818,4.3368961 C17.8719987,3.84580151 16.7626793,3.3414341 15.8426749,3.83584689 C15.6799305,3.92212027 15.5105434,4.04489391 15.3212284,3.97521157 C15.0787724,3.87898358 15.1020216,3.53057188 14.9890968,3.31157024 C14.8163884,2.99965882 14.3812961,2.95984034 14.0292367,3.01956806 C13.6867606,3.12986336 13.3210613,3.14704315 12.969737,3.06934116 C12.5778218,2.92002186 12.3885068,2.4919732 12.1825852,2.12697047 C11.6628118,1.12302577 10.7100656,0.413417064 9.59860178,0.202410606 C8.49592504,0.0431366865 7.27368094,0.633777471 6.88508702,1.67569436 C6.7289852,2.09047019 6.70573599,2.55170092 6.5363489,2.96647675 C6.36696181,3.38125258 5.96176132,3.75620993 5.53995425,3.67657297 C4.91886825,3.56375395 4.70630406,2.68111098 4.08853938,2.53179168 C3.47077469,2.38247238 3.05228894,3.06270474 2.71351476,3.57702677 C2.23856664,4.30039582 1.92636299,5.89977143 0.0830328874,5.89977143 L23.5315203,5.89313502 Z" id="Shape"></path>
                </g>
                <path d="M28.9319793,77.7986732 C28.9319793,77.7986732 25.4977391,71.3182156 21.6450131,71.0627137 C19.0244952,70.890167 17.8786413,72.3899964 16.9353877,73.0934562 C16.1814491,73.6475967 14.2185516,76.0499783 12.5246807,76.5609822 C10.0137662,77.3175333 8.77823686,74.0955546 5.68277081,74.0856 C3.05893157,74.0856 0.282311817,77.7986732 0.282311817,77.7986732 L28.9319793,77.7986732 Z" id="Shape" fill="#CCF1D6"></path>
                <path d="M17.2708406,58.254436 C17.2708406,58.254436 20.0474603,59.555173 20.3961985,62.0703737 C20.7449366,64.5855743 20.2201687,65.720401 21.0903534,66.7490451 C21.9605381,67.7776891 24.5578068,69.8681593 22.6513717,72.4696333 C20.7449366,75.0711074 18.6657931,74.0291905 17.2708406,73.2494119 C15.8758881,72.4696333 14.842959,69.3472009 16.2312688,67.0941386 C17.6195787,64.8410762 18.2240581,63.1952457 17.6195787,61.3768685 C17.0150993,59.5584913 15.3710481,57.9093425 17.2708406,58.254436 Z" id="Shape" fill="#99E3AD"></path>
                <path d="M19.0577083,77.8783102 L19.0311378,77.8783102 C18.9412745,77.8630337 18.8796268,77.7794474 18.8916425,77.6891724 C21.2697044,62.8601069 17.7756805,59.9334486 17.7424674,59.906903 C17.6764581,59.8491544 17.6668046,59.7500682 17.7204282,59.6806862 C17.7740518,59.6113043 17.8724472,59.5955701 17.9450676,59.6447646 C18.0945268,59.7609019 21.6383705,62.6510599 19.2204528,77.7422637 C19.206061,77.8208414 19.137665,77.8780172 19.0577083,77.8783102 Z" id="Shape" fill="#808080"></path>
                <path d="M87.2509581,77.8285371 L23.3023495,77.8285371 C22.4182112,77.8285371 21.7014755,77.1124722 21.7014755,76.2291615 L21.7014755,29.4424477 C21.7014755,28.5591369 22.4182112,27.843072 23.3023495,27.843072 L41.4699453,27.843072 C42.0318952,27.8434259 42.5525126,28.1381243 42.8416486,28.6195324 L44.7480837,31.7851015 C45.0380398,32.2652363 45.5585063,32.5585902 46.119787,32.5582437 L87.2509581,32.5582437 C88.1350964,32.5582437 88.8518322,33.2743085 88.8518322,34.1576193 L88.8518322,76.2324797 C88.8500005,77.1144943 88.133801,77.828539 87.2509581,77.8285371 Z" id="Shape" fill="#66D3EE"></path>
                <rect id="Rectangle-path" fill="#F2F2F2" transform="translate(80.971551, 39.822319) rotate(-89.810000) translate(-80.971551, -39.822319) " x="51.4516993" y="16.7591239" width="59.0397043" height="46.1263907"></rect>
                <g id="Rectangle-path" transform="translate(83.180896, 42.046266) rotate(-89.810000) translate(-83.180896, -42.046266) ">
                    <use fill="black" fill-opacity="1" filter="url(#filter-2)" xlink:href="#path-1"></use>
                    <use fill="#FFFFFF" fill-rule="evenodd" xlink:href="#path-1"></use>
                </g>
                <rect id="Rectangle-path" fill="#F2F2F2" transform="translate(79.872960, 34.075594) rotate(0.190000) translate(-79.872960, -34.075594) " x="68.3413525" y="33.4102932" width="23.0632148" height="1.33060087"></rect>
                <rect id="Rectangle-path" fill="#F2F2F2" transform="translate(90.711086, 43.860347) rotate(0.190000) translate(-90.711086, -43.860347) " x="83.3909066" y="43.1950462" width="14.6403587" height="1.33060087"></rect>
                <rect id="Rectangle-path" fill="#F9CCEB" transform="translate(90.678716, 53.612392) rotate(0.190000) translate(-90.678716, -53.612392) " x="83.358537" y="52.9470919" width="14.6403587" height="1.33060087"></rect>
                <rect id="Rectangle-path" fill="#F2F2F2" transform="translate(83.119799, 58.506563) rotate(0.190000) translate(-83.119799, -58.506563) " x="68.2569126" y="57.886058" width="29.7257737" height="1.24100929"></rect>
                <rect id="Rectangle-path" fill="#F2F2F2" transform="translate(80.798800, 63.335142) rotate(0.190000) translate(-80.798800, -63.335142) " x="68.2409056" y="62.6698414" width="25.1157878" height="1.33060087"></rect>
                <rect id="Rectangle-path" fill="#F2F2F2" transform="translate(83.233385, 24.286460) rotate(0.190000) translate(-83.233385, -24.286460) " x="68.3704981" y="23.665955" width="29.7257737" height="1.24100929"></rect>
                <rect id="Rectangle-path" fill="#F2F2F2" transform="translate(83.216908, 29.250415) rotate(0.190000) translate(-83.216908, -29.250415) " x="68.3540214" y="28.6299099" width="29.7257737" height="1.24100929"></rect>
                <rect id="Rectangle-path" fill="#F2F2F2" transform="translate(73.613657, 48.679778) rotate(0.190000) translate(-73.613657, -48.679778) " x="68.289588" y="43.1383733" width="10.6481375" height="11.0828102"></rect>
                <rect id="Rectangle-path" fill="#F2F2F2" transform="translate(90.694896, 48.738029) rotate(0.190000) translate(-90.694896, -48.738029) " x="83.3747163" y="48.0727281" width="14.6403587" height="1.33060087"></rect>
                <path d="M64.0748186,17.1153099 C63.7953096,17.1153155 63.5273445,17.0039327 63.3303263,16.8058532 C63.1333081,16.6077736 63.0235138,16.3393619 63.0252829,16.0601202 L63.0252829,11.6269961 L63.3574144,11.6269961 L63.3574144,16.0601202 C63.354546,16.2518252 63.4301222,16.4363943 63.5666573,16.571124 C63.7008002,16.70696 63.8838204,16.7834458 64.0748186,16.7834893 C64.4715708,16.7834935 64.7937157,16.4631333 64.795544,16.0667566 L64.8154719,10.3030317 C64.8136754,9.66128726 64.2953365,9.14047435 63.6530115,9.13502292 C63.0112148,9.13683417 62.4908738,9.65520713 62.4872297,10.2963953 L62.1550982,10.2963953 C62.1587553,9.4724878 62.828324,8.80651236 63.6530115,8.80652046 C64.4795252,8.81017422 65.1476116,9.48060174 65.1476035,10.3063499 L65.1276756,16.0700748 C65.1240342,16.648955 64.6542497,17.1168192 64.0748186,17.1186281 L64.0748186,17.1153099 Z" id="Shape" fill="#666666"></path>
                <path d="M88.0148607,77.7986732 L22.7742604,77.7986732 C22.4715575,77.7997065 22.1837362,77.6676071 21.9873189,77.4374962 C21.7909016,77.2073853 21.7057914,76.9025802 21.7546165,76.6041188 L30.0877971,37.0510955 C30.1677569,36.5504027 30.5999404,36.1819139 31.1074409,36.1817254 L96.3181494,36.1817254 C96.6210429,36.1808646 96.9090503,36.3128693 97.1059609,36.5428091 C97.3028715,36.7727489 97.3888387,37.0774484 97.3411146,37.3762798 L89.0112553,76.9293031 C88.9315592,77.4207507 88.5130197,77.7859331 88.0148607,77.7986732 Z" id="Shape" fill="#99E1F3"></path>
                <path d="M60.0294563,65.3288526 C59.9830053,65.3318209 59.936412,65.3318209 59.889961,65.3288526 C59.5124707,65.2490641 59.2695686,64.8806129 59.3452653,64.5026192 L61.7299698,52.7594858 C61.8228256,52.3983485 62.182682,52.1732732 62.5484057,52.247588 C62.9141295,52.3219029 63.1573945,52.6695321 63.1016731,53.0382152 L60.7136473,64.7548029 C60.6542894,65.0861292 60.3663612,65.3277066 60.0294563,65.3288526 Z" id="Shape" fill="#FFFFFF"></path>
                <path d="M65.9679684,58.5995295 C65.7416393,58.5995791 65.5290833,58.4909313 65.3967021,58.3075273 L62.2846295,53.934131 L57.3325481,58.0885257 C57.0372239,58.3368423 56.5963273,58.2989592 56.3477781,58.0039114 C56.0992288,57.7088636 56.1371474,57.2683798 56.4324716,57.0200632 L61.9657832,52.3745738 C62.1145006,52.2478193 62.3100074,52.1899456 62.5038363,52.2152999 C62.6973604,52.2410169 62.8716442,52.3454893 62.9854271,52.5039839 L66.5359133,57.4812939 C66.6430941,57.63217 66.6858177,57.8194368 66.6546663,58.0018134 C66.6235148,58.18419 66.5210459,58.346703 66.3698476,58.4535284 C66.2556581,58.5451212 66.1143743,58.596449 65.9679684,58.5995295 Z" id="Shape" fill="#FFFFFF"></path>
            </g>
        </g>
    </g>
</svg>