<?xml version="1.0" encoding="UTF-8"?>
<svg width="800px" height="600px" viewBox="0 0 800 600" version="1.1" xmlns="http://www.w3.org/2000/svg" xmlns:xlink="http://www.w3.org/1999/xlink">
    <!-- Generator: Sketch 49.3 (51167) - http://www.bohemiancoding.com/sketch -->
    <title>Page 1</title>
    <desc>Created with Sketch.</desc>
    <defs>
        <polygon id="path-1" points="0.7002 0.0001 229 0.0001 229 112.0001 0.7002 112.0001"></polygon>
        <polygon id="path-3" points="0.0002 0.577193808 708 0.577193808 708 391 0.0002 391"></polygon>
    </defs>
    <g id="Page-1" stroke="none" stroke-width="1" fill="none" fill-rule="evenodd">
        <g id="Artboard" transform="translate(-1143.000000, -1546.000000)">
            <g id="Page-1" transform="translate(1143.000000, 1546.000000)">
                <polygon id="Fill-1" fill="#E5F7EB" points="0 600 800 600 800 0 0 0"></polygon>
                <g id="Group-14" transform="translate(0.000000, 140.000000)">
                    <path d="M800,0 C733.253,3.008 639.742,18.136 558,80 C483.57,136.33 466.922,195.063 411,264 C357.845,329.525 264.981,409.477 92,460 L800,460 L800,0 Z" id="Fill-2" fill="#CCCCCC"></path>
                    <path d="M0,384 C37.182,391.44 94.579,397.381 156,377 C304.336,327.779 321.919,176.209 447,105 C510.229,69.003 616.137,44.882 800,112 L800,460 L0,460 L0,384 Z" id="Fill-4" fill="#CCCCCC"></path>
                    <g id="Group-8" transform="translate(571.000000, 0.000000)">
                        <mask id="mask-2" fill="white">
                            <use xlink:href="#path-1"></use>
                        </mask>
                        <g id="Clip-7"></g>
                        <path d="M0.7002,70.1431 C59.0752,66.9031 133.5232,77.1471 229.0002,112.0001 L229.0002,0.0001 C165.9532,2.8411 79.0312,16.5041 0.7002,70.1431" id="Fill-6" fill="#D6F3DD" mask="url(#mask-2)"></path>
                    </g>
                    <path d="M411,264 C466.922,195.063 483.57,136.33 558,80 C562.532,76.57 567.103,73.292 571.7,70.143 C517.661,73.143 477.396,87.696 447,105 C321.919,176.209 304.336,327.779 156,377 C94.579,397.381 37.182,391.44 0,384 L0,460 L92,460 C264.981,409.477 357.845,329.525 411,264" id="Fill-9" fill="#D6F3DD"></path>
                    <g id="Group-13" transform="translate(92.000000, 69.000000)">
                        <mask id="mask-4" fill="white">
                            <use xlink:href="#path-3"></use>
                        </mask>
                        <g id="Clip-12"></g>
                        <path d="M479.7002,1.1431 C475.1022,4.2921 470.5322,7.5701 466.0002,11.0001 C391.5702,67.3301 374.9222,126.0631 319.0002,195.0001 C265.8452,260.5251 172.9812,340.4761 0.0002,391.0001 L708.0002,391.0001 L708.0002,43.0001 C612.5232,8.1471 538.0752,-2.0969 479.7002,1.1431" id="Fill-11" fill="#C9F0D3" mask="url(#mask-4)"></path>
                    </g>
                </g>
                <g id="Group" transform="translate(171.000000, 152.000000)">
                    <polygon id="Fill-15" fill="#D6F3DD" points="167 289 315 289 315 100 167 100"></polygon>
                    <polygon id="Fill-16" fill="#FFFFFF" points="174 296 322 296 322 107 174 107"></polygon>
                    <polygon id="Fill-17" fill="#E5F7EB" points="200 178 274 178 274 174 200 174"></polygon>
                    <polygon id="Fill-18" fill="#E5F7EB" points="248 209 295 209 295 205 248 205"></polygon>
                    <polygon id="Fill-19" fill="#E5F7EB" points="248 240 295 240 295 236 248 236"></polygon>
                    <polygon id="Fill-20" fill="#E5F7EB" points="200 256 295 256 295 252 200 252"></polygon>
                    <polygon id="Fill-21" fill="#E5F7EB" points="200 272 280 272 280 268 200 268"></polygon>
                    <polygon id="Fill-22" fill="#E5F7EB" points="200 147 295 147 295 143 200 143"></polygon>
                    <polygon id="Fill-23" fill="#E5F7EB" points="200 163 295 163 295 159 200 159"></polygon>
                    <polygon id="Fill-24" fill="#E5F7EB" points="200 241 234 241 234 205 200 205"></polygon>
                    <polygon id="Fill-25" fill="#E5F7EB" points="248 225 295 225 295 221 248 221"></polygon>
                    <g id="Group-48">
                        <path d="M183.416182,104.09847 L183.416182,118.279122 C183.416182,119.845242 184.687924,121.115109 186.256358,121.115109 C187.824792,121.115109 189.097254,119.845242 189.097254,118.279122 L189.097254,99.8437709 C189.097254,97.4945903 187.188921,95.589791 184.83627,95.589791 C182.483619,95.589791 180.576006,97.4945903 180.576006,99.8437709" id="Stroke-26" stroke="#99E4AC"></path>
                        <path d="M453.280512,140.717356 L333.186575,172.84943 L326.356181,182.121754 L287.6487,37.8790452 C287.006348,35.4816873 288.430037,33.0181756 290.830936,32.3760518 L410.927034,0.243978261 C413.327213,-0.398864548 415.794364,1.02416221 416.437436,3.420801 L453.280512,140.717356 Z" id="Fill-28" fill="#99E4AC"></path>
                        <path d="M451.712942,149.963363 C450.840149,146.7096 451.47098,143.212075 453.266253,140.870804 L332.857621,173.086289 C328.296344,174.30654 325.589392,178.988363 326.812165,183.542192 C328.034219,188.096741 332.722237,190.799701 337.283514,189.578731 L457.682064,157.365403 L457.613653,157.110855 C454.468863,155.80863 452.592936,153.241574 451.712942,149.963363" id="Fill-30" fill="#B7EBC5"></path>
                        <path d="M299.606101,38.7606171 L334.146934,167.475868" id="Stroke-32" stroke="#C9F0D3" stroke-linecap="round" stroke-linejoin="round" stroke-dasharray="3.509,5.615,1.404,5.615"></path>
                        <path d="M406.627739,46.8244833 L327.913669,67.8844164 C326.013258,68.3935134 324.058836,67.2667408 323.549707,65.3691321 L320.516537,54.0654532 C320.007408,52.1671254 321.135125,50.216306 323.036258,49.7079281 L401.750327,28.6472759 C403.650739,28.138898 405.60444,29.2656706 406.113569,31.1632793 L409.146739,42.4669582 C409.656588,44.365286 408.528871,46.3153863 406.627739,46.8244833" id="Fill-34" fill="#FFFFFF"></path>
                        <polygon id="Fill-36" fill="#FFFFFF" points="360.001682 195.324408 352.675123 193.320378 348.144091 199.180746 342.073431 178.765094 353.929582 174.909475"></polygon>
                        <polygon id="Fill-38" fill="#FFFFFF" points="0.665972327 131.360398 95.5742302 114.330816 110.599655 197.827756 15.692117 214.856619"></polygon>
                        <polygon id="Fill-40" fill="#D6F3DD" points="88.1612553 125.638809 11.5665164 139.382271 20.4557491 188.781217 97.0512082 175.037756"></polygon>
                        <polygon id="Fill-42" fill="#FFFFFF" points="62.2789264 156.173339 48.6267818 151.257102 51.1933101 165.520446"></polygon>
                        <polygon id="Fill-44" fill="#D6F3DD" points="21.7254028 195.83595 61.1278053 188.766117 61.5742833 191.247605 22.1718808 198.317438"></polygon>
                        <polygon id="Fill-46" fill="#D6F3DD" points="22.8505994 202.087776 72.8179673 193.122492 73.2644453 195.603261 23.2970774 204.569264"></polygon>
                    </g>
                </g>
            </g>
        </g>
    </g>
</svg>