<?xml version="1.0" encoding="UTF-8"?>
<svg width="1680px" height="147px" viewBox="0 0 1680 147" version="1.1" xmlns="http://www.w3.org/2000/svg" xmlns:xlink="http://www.w3.org/1999/xlink">
    <!-- Generator: Sketch 49.1 (51147) - http://www.bohemiancoding.com/sketch -->
    <title>loading</title>
    <desc>Created with Sketch.</desc>
    <defs></defs>
    <g id="Symbols" stroke="none" stroke-width="1" fill="none" fill-rule="evenodd">
        <g id="section-signup" transform="translate(0.000000, -135.000000)">
            <g id="loading">
                <g transform="translate(-306.000000, 135.000000)">
                    <path d="M2213,38.240839 C2103.98467,38.240839 2087.90354,107.563741 1744.23349,103.429876 C1651.02783,102.310708 1453.70495,4.18182327 1351.78302,0.990681026 C1234.10453,-2.69954981 1112.45445,75.9144662 992.031837,75.4909971 C868.994939,75.0574453 758.138392,5.40685891 643.18632,0.990681026 C517.13384,-3.85400727 386.814696,93.634632 283.44104,84.8022762 C65.4103787,66.1797179 0,10.3019602 0,10.3019602 L0,148 L2213,148 L2213,38.240839 Z" id="Fill-5" fill="#66D3EE" opacity="0.1"></path>
                    <path d="M20,110.975661 C20,110.975661 98.4161854,37.7599212 376.723065,40.0431134 C598.383047,41.8625783 643.26932,89.0475649 772.201651,89.1509436 C878.396144,89.2336465 999.580024,38.0287056 1110.14741,40.0431132 C1219.69976,42.0397987 1319.00149,94.2046846 1426.28773,94.6063846 C1530.80625,94.9962699 1618.91735,36.4573496 1786.03891,34.5876722 C1953.16048,32.7179947 2002.50623,74.0871908 2075.36409,89.1509425 C2188.67559,112.573599 2233,116.431102 2233,116.431102 L2233,148 L20,148 L20,110.975661 Z" id="Fill-3" fill="#00B5E2" style="mix-blend-mode: multiply;" opacity="0.05"></path>
                </g>
            </g>
        </g>
    </g>
</svg>